<svg xmlns="http://www.w3.org/2000/svg" width="20" height="20" viewBox="0 0 20 20" fill="none">
<path d="M6.66666 4.16667C6.66666 3.28261 7.01785 2.43476 7.64297 1.80964C8.26809 1.18452 9.11594 0.833333 9.99999 0.833333C10.884 0.833333 11.7319 1.18452 12.357 1.80964C12.9821 2.43476 13.3333 3.28261 13.3333 4.16667V8.54583C14.3525 9.25548 15.1186 10.2719 15.5201 11.4471C15.9216 12.6222 15.9375 13.8949 15.5656 15.0798C15.1937 16.2647 14.4534 17.3 13.4524 18.035C12.4514 18.77 11.2419 19.1663 9.99999 19.1663C8.75811 19.1663 7.54863 18.77 6.5476 18.035C5.54657 17.3 4.80624 16.2647 4.43435 15.0798C4.06246 13.8949 4.07843 12.6222 4.47993 11.4471C4.88143 10.2719 5.6475 9.25548 6.66666 8.54583V4.16667ZM7.61999 9.9125C6.8918 10.4192 6.34436 11.1452 6.05737 11.9846C5.77038 12.8241 5.75881 13.7332 6.02436 14.5797C6.28991 15.4262 6.8187 16.1658 7.53377 16.6909C8.24883 17.216 9.11283 17.4992 9.99999 17.4992C10.8872 17.4992 11.7512 17.216 12.4662 16.6909C13.1813 16.1658 13.7101 15.4262 13.9756 14.5797C14.2412 13.7332 14.2296 12.8241 13.9426 11.9846C13.6556 11.1452 13.1082 10.4192 12.38 9.9125L11.6667 9.415V4.16667C11.6667 3.72464 11.4911 3.30072 11.1785 2.98815C10.8659 2.67559 10.442 2.5 9.99999 2.5C9.55796 2.5 9.13404 2.67559 8.82148 2.98815C8.50892 3.30072 8.33332 3.72464 8.33332 4.16667V9.415L7.61999 9.9125ZM6.66666 13.3333H13.3333C13.3333 14.2174 12.9821 15.0652 12.357 15.6904C11.7319 16.3155 10.884 16.6667 9.99999 16.6667C9.11594 16.6667 8.26809 16.3155 7.64297 15.6904C7.01785 15.0652 6.66666 14.2174 6.66666 13.3333Z" fill="white"/>
</svg>